<svg xmlns="http://www.w3.org/2000/svg" viewBox="0 0 200 200">
  <path d="M17.5,-34.2C26.5,-25.1,40.2,-28.1,54.3,-24.4C68.3,-20.8,82.7,-10.4,87.3,2.7C92,15.7,86.9,31.5,74.7,38.4C62.5,45.3,43.2,43.3,29.6,39.9C15.9,36.6,8,31.8,-1.1,33.7C-10.2,35.6,-20.3,44.2,-33.4,47.2C-46.5,50.3,-62.5,47.8,-62.1,39C-61.8,30.2,-45,15.1,-44.2,0.5C-43.3,-14.1,-58.3,-28.2,-61.5,-41.9C-64.7,-55.6,-56,-68.8,-43.8,-76C-31.6,-83.2,-15.8,-84.4,-5.8,-74.4C4.2,-64.5,8.5,-43.3,17.5,-34.2Z" transform="translate(100 100)"/>
</svg>